<svg preserveAspectRatio="none" width="100%" height="100%" overflow="visible" style="display: block;" viewBox="0 0 26 26" fill="none" xmlns="http://www.w3.org/2000/svg">
<g id="Icon">
<path id="Vector" d="M20.5833 3.25H5.41667C4.22005 3.25 3.25 4.22005 3.25 5.41667V20.5833C3.25 21.78 4.22005 22.75 5.41667 22.75H20.5833C21.78 22.75 22.75 21.78 22.75 20.5833V5.41667C22.75 4.22005 21.78 3.25 20.5833 3.25Z" stroke="var(--stroke-0, white)" stroke-width="1.625" stroke-linecap="round" stroke-linejoin="round"/>
<path id="Vector_2" d="M9.75 11.9167C10.9466 11.9167 11.9167 10.9466 11.9167 9.75C11.9167 8.55338 10.9466 7.58333 9.75 7.58333C8.55338 7.58333 7.58333 8.55338 7.58333 9.75C7.58333 10.9466 8.55338 11.9167 9.75 11.9167Z" stroke="var(--stroke-0, white)" stroke-width="1.625" stroke-linecap="round" stroke-linejoin="round"/>
<path id="Vector_3" d="M22.75 16.25L19.4068 12.9068C19.0005 12.5006 18.4495 12.2725 17.875 12.2725C17.3005 12.2725 16.7495 12.5006 16.3432 12.9068L6.5 22.75" stroke="var(--stroke-0, white)" stroke-width="1.625" stroke-linecap="round" stroke-linejoin="round"/>
</g>
</svg>
