<svg preserveAspectRatio="none" width="100%" height="100%" overflow="visible" style="display: block;" viewBox="0 0 375 99" fill="none" xmlns="http://www.w3.org/2000/svg">
<foreignObject x="-10" y="-10" width="395" height="119"><div xmlns="http://www.w3.org/1999/xhtml" style="backdrop-filter:blur(5px);clip-path:url(#bgblur_0_4304_1761_clip_path);height:100%;width:100%"></div></foreignObject><path id="&#229;&#186;&#149;&#233;&#131;&#168;tab&#232;&#131;&#140;&#230;&#153;&#175;" data-figma-bg-blur-radius="10" d="M188 0C200.667 0 211.886 6.19898 218.79 15.7283C221.011 18.7931 224.382 21 228.167 21H375V99H0V21H147.833C151.618 21 154.989 18.7931 157.21 15.7283C164.114 6.19898 175.333 0 188 0Z" fill="var(--fill-0, #FFF6EB)" fill-opacity="0.75"/>
<defs>
<clipPath id="bgblur_0_4304_1761_clip_path" transform="translate(10 10)"><path d="M188 0C200.667 0 211.886 6.19898 218.79 15.7283C221.011 18.7931 224.382 21 228.167 21H375V99H0V21H147.833C151.618 21 154.989 18.7931 157.21 15.7283C164.114 6.19898 175.333 0 188 0Z"/>
</clipPath></defs>
</svg>
