<svg preserveAspectRatio="none" width="100%" height="100%" overflow="visible" style="display: block;" viewBox="0 0 24 24" fill="none" xmlns="http://www.w3.org/2000/svg">
<g id="&#233;&#159;&#179;&#232;&#137;&#178;&#231;&#174;&#161;&#231;&#144;&#134; 1">
<path id="Vector" d="M15.7707 11.7707C15.2565 12.2872 14.6409 12.6917 13.9627 12.9587C13.3382 13.2072 12.6721 13.3344 12 13.3333C11.328 13.3348 10.6619 13.2081 10.0373 12.96C9.35901 12.6926 8.74342 12.2877 8.22933 11.7707C7.71276 11.2565 7.30827 10.6409 7.04133 9.96267C6.79282 9.33821 6.66566 8.67209 6.66667 8C6.66667 7.328 6.792 6.66133 7.04 6.03733C7.312 5.352 7.708 4.74933 8.22933 4.22933C8.74354 3.71279 9.35913 3.3083 10.0373 3.04133C10.6618 2.79282 11.3279 2.66566 12 2.66667C12.672 2.66667 13.3387 2.792 13.9627 3.04C14.648 3.312 15.2507 3.708 15.7707 4.22933C16.2907 4.74933 16.688 5.352 16.9587 6.03733C17.208 6.66133 17.3347 7.328 17.3333 8C17.3333 8.672 17.2067 9.33867 16.96 9.96267C16.6926 10.641 16.2877 11.2566 15.7707 11.7707ZM14.58 5.42C14.2281 5.06638 13.8068 4.78946 13.3427 4.60667C12.9154 4.43678 12.4598 4.3499 12 4.35067C11.54 4.35067 11.084 4.43733 10.6573 4.60667C10.1931 4.78942 9.77185 5.06635 9.42 5.42C9.06667 5.772 8.78933 6.19333 8.60667 6.65733C8.43733 7.084 8.35067 7.54 8.35067 8C8.35067 8.464 8.436 8.912 8.60667 9.34267C8.78933 9.80667 9.06667 10.228 9.42 10.58C9.772 10.9333 10.1933 11.2107 10.6573 11.3933C11.084 11.5627 11.54 11.6507 12 11.6493C12.46 11.6493 12.916 11.5627 13.3427 11.3933C13.8067 11.2107 14.228 10.9333 14.58 10.58C14.9333 10.228 15.2107 9.80667 15.3933 9.34267C15.5627 8.916 15.6493 8.46 15.6493 8C15.6493 7.54 15.5627 7.084 15.3933 6.65733C15.2106 6.19311 14.9337 5.7718 14.58 5.42Z" fill="var(--fill-0, white)"/>
<path id="Vector_2" d="M5.36133 14.4427C6.17379 13.5726 7.14911 12.8704 8.232 12.376C9.22347 11.9213 10.2921 11.6584 11.3813 11.6013C11.4899 11.5965 11.5982 11.6142 11.6997 11.6532C11.8011 11.6922 11.8933 11.7517 11.9707 11.828C12.132 11.9827 12.228 12.2013 12.2387 12.432C12.2503 12.6606 12.1756 12.8853 12.0293 13.0613C11.9596 13.1455 11.8733 13.2145 11.7758 13.264C11.6784 13.3136 11.5718 13.3426 11.4627 13.3493C10.5679 13.3966 9.69026 13.6129 8.876 13.9867C7.98683 14.3923 7.18592 14.9686 6.51867 15.6827C5.83285 16.411 5.28929 17.2612 4.916 18.1893C4.55883 19.068 4.35238 20.0007 4.30533 20.948C4.28133 21.4307 3.89333 21.8013 3.44133 21.7747C3.33224 21.7674 3.22579 21.7379 3.12856 21.6879C3.03132 21.6379 2.94537 21.5685 2.876 21.484C2.72955 21.307 2.65527 21.0813 2.668 20.852C2.72521 19.6991 2.97628 18.5641 3.41067 17.4947C3.86487 16.3642 4.52646 15.3286 5.36133 14.4413V14.4427ZM15.3667 22.2667C14.9133 22.2667 14.5467 21.8747 14.5467 21.392V15.9653C14.5467 15.4813 14.9133 15.0907 15.3667 15.0907C15.82 15.0907 16.1867 15.4813 16.1867 15.9653V21.392C16.1867 21.8747 15.82 22.2667 15.3667 22.2667ZM12.7427 20.8227C12.2893 20.8227 11.9227 20.4307 11.9227 19.948V17.4533C11.9227 16.9693 12.2893 16.5773 12.7427 16.5773C13.196 16.5773 13.5627 16.9693 13.5627 17.4533V19.9467C13.5627 20.4307 13.1947 20.8227 12.7427 20.8227ZM17.992 20.8227C17.5387 20.8227 17.172 20.4307 17.172 19.948V17.4533C17.172 16.9693 17.5387 16.5773 17.992 16.5773C18.4453 16.5773 18.812 16.9693 18.812 17.4533V19.9467C18.812 20.4307 18.444 20.8227 17.992 20.8227ZM22.6667 18.68C22.6667 19.1627 22.3 19.5547 21.8467 19.5547H20.78C20.3267 19.5547 19.96 19.1627 19.96 18.68C19.96 18.196 20.3267 17.804 20.78 17.804H21.8467C22.3 17.804 22.6667 18.196 22.6667 18.68Z" fill="var(--fill-0, white)"/>
</g>
</svg>
