<svg preserveAspectRatio="none" width="100%" height="100%" overflow="visible" style="display: block;" viewBox="0 0 24 24" fill="none" xmlns="http://www.w3.org/2000/svg">
<g id="&#233;&#159;&#179;&#228;&#185;&#144; 1">
<path id="Vector" opacity="0.99" d="M3.05308 20.3915C3.18881 20.7431 3.41371 21.0563 3.71492 21.3133C4.01613 21.5702 4.38776 21.7659 4.8086 21.8891C5.22943 22.0123 5.69122 22.0607 6.16761 22.0314C6.64399 22.0021 7.12564 21.8957 7.58505 21.7183C8.04446 21.541 8.47264 21.2961 8.84514 20.9977C9.21764 20.6993 9.52716 20.3532 9.75603 19.9792C9.9849 19.6051 10.1286 19.2105 10.1791 18.8178C10.2295 18.4251 10.1855 18.042 10.0498 17.6904C9.77567 16.9803 9.14419 16.4416 8.29428 16.1927C7.44437 15.9439 6.44565 16.0053 5.51783 16.3635C4.59 16.7217 3.80908 17.3473 3.34685 18.1027C2.88462 18.8581 2.77894 19.6814 3.05308 20.3915Z" fill="var(--fill-0, white)"/>
<path id="Vector_2" opacity="0.99" d="M13.8535 18.1417C13.9892 18.4933 14.2141 18.8066 14.5153 19.0636C14.8165 19.3205 15.1882 19.5162 15.609 19.6395C16.0298 19.7627 16.4916 19.811 16.968 19.7817C17.4444 19.7524 17.9261 19.6461 18.3855 19.4687C18.8449 19.2913 19.2731 19.0465 19.6456 18.748C20.0181 18.4496 20.3277 18.1035 20.5565 17.7295C20.7854 17.3554 20.9291 16.9608 20.9795 16.5681C21.0299 16.1753 20.986 15.7922 20.8502 15.4406C20.7145 15.089 20.4896 14.7758 20.1884 14.5188C19.8872 14.2618 19.5156 14.0661 19.0947 13.9429C18.6739 13.8197 18.2121 13.7713 17.7357 13.8006C17.2593 13.8299 16.7776 13.9363 16.3182 14.1137C15.8588 14.291 15.4306 14.5359 15.0581 14.8343C14.6856 15.1327 14.3761 15.4788 14.1472 15.8529C13.9183 16.2269 13.7746 16.6216 13.7242 17.0143C13.6738 17.407 13.7177 17.7901 13.8535 18.1417Z" fill="var(--fill-0, white)"/>
<path id="Vector_3" opacity="0.99" d="M18.37 2.31L10.04 4.96C9.62339 5.08572 9.25835 5.34229 8.99899 5.69172C8.73962 6.04115 8.59971 6.46483 8.6 6.9V18.52H10.2V9.1C10.2 8.91 10.32 8.74 10.51 8.69L18.85 6.03C18.89 6.02 18.93 6.01 18.97 6.01C19.18 6.01 19.4 6.18 19.4 6.44V16.24H21V4.24C21 2.88 19.68 1.91 18.37 2.31Z" fill="var(--fill-0, white)"/>
</g>
</svg>
